<?xml version="1.0" encoding="utf-8"?>
<!-- Generator: Adobe Illustrator 24.1.3, SVG Export Plug-In . SVG Version: 6.00 Build 0)  -->
<svg version="1.1" id="Camada_1" xmlns="http://www.w3.org/2000/svg" xmlns:xlink="http://www.w3.org/1999/xlink" x="0px" y="0px"
	 viewBox="0 0 24 24" style="enable-background:new 0 0 24 24;" xml:space="preserve">
<style type="text/css">
	.st0{fill:#FFFFFF;}
</style>
<path class="st0" d="M12,2C6.5,2,2,6.5,2,12c0,4.4,2.9,8.2,6.8,9.5c0.5,0.1,0.7-0.2,0.7-0.5c0-0.2,0-0.9,0-1.7
	C6.7,19.9,6.1,18,6.1,18C5.7,16.8,5,16.5,5,16.5c-0.9-0.6,0.1-0.6,0.1-0.6c1,0.1,1.5,1,1.5,1C7.5,18.5,9,18,9.5,17.8
	c0.1-0.6,0.4-1.1,0.6-1.3c-2.2-0.3-4.6-1.1-4.6-4.9c0-1.1,0.4-2,1-2.7C6.6,8.5,6.2,7.5,6.8,6.2c0,0,0.8-0.3,2.8,1
	c0.8-0.2,1.6-0.3,2.5-0.3s1.7,0.1,2.5,0.3c1.9-1.3,2.8-1,2.8-1c0.5,1.3,0.2,2.4,0.1,2.6c0.6,0.7,1,1.6,1,2.7c0,3.8-2.3,4.7-4.6,4.9
	c0.4,0.3,0.7,0.9,0.7,1.9c0,1.3,0,2.4,0,2.7c0,0.3,0.2,0.6,0.7,0.5c4-1.3,6.8-5.1,6.8-9.5C22,6.5,17.5,2,12,2z"/>
</svg>
