<?xml version="1.0" encoding="utf-8"?>
<!-- Generator: Adobe Illustrator 24.1.3, SVG Export Plug-In . SVG Version: 6.00 Build 0)  -->
<svg version="1.1" id="Camada_1" xmlns="http://www.w3.org/2000/svg" xmlns:xlink="http://www.w3.org/1999/xlink" x="0px" y="0px"
	 viewBox="0 0 24 24" style="enable-background:new 0 0 24 24;" xml:space="preserve">
<style type="text/css">
	.st0{fill:#FFFFFF;}
</style>
<path class="st0" d="M19,3c1.1,0,2,0.9,2,2v14c0,1.1-0.9,2-2,2H5c-1.1,0-2-0.9-2-2V5c0-1.1,0.9-2,2-2H19 M18.5,18.5v-5.3
	c0-1.8-1.5-3.3-3.3-3.3c0,0,0,0,0,0c-0.8,0-1.8,0.5-2.3,1.3v-1.1h-2.8v8.4h2.8v-4.9c0-0.8,0.6-1.4,1.4-1.4c0.8,0,1.4,0.6,1.4,1.4
	v4.9H18.5 M6.9,8.6c0.9,0,1.7-0.8,1.7-1.7v0c0-0.9-0.8-1.7-1.7-1.7c-0.9,0-1.7,0.8-1.7,1.7l0,0C5.2,7.8,5.9,8.6,6.9,8.6 M8.3,18.5
	v-8.4H5.5v8.4H8.3z"/>
</svg>
